<svg height="512pt" viewBox="-36 0 512 512" width="512pt" xmlns="http://www.w3.org/2000/svg"><path d="m435.511719 107.03125-104.597657-102.742188c-2.800781-2.75-6.578124-4.289062-10.507812-4.289062h-264.4375c-30.859375 0-55.96875 25.101562-55.96875 55.960938v400.070312c0 30.859375 25.109375 55.96875 55.96875 55.96875h328.0625c30.859375 0 55.96875-25.109375 55.96875-55.96875v-338.300781c0-4.03125-1.621094-7.878907-4.488281-10.699219zm0 0" fill="#fede81"/><path d="m440 117.730469v338.300781c0 30.859375-25.109375 55.96875-55.96875 55.96875h-164.03125v-512h100.40625c3.929688 0 7.707031 1.539062 10.507812 4.289062l104.597657 102.742188c2.867187 2.820312 4.488281 6.667969 4.488281 10.699219zm0 0" fill="#feaf45"/><g fill="#fff"><path d="m339.136719 253c0 8.28125-6.722657 15-15 15h-211.449219c-8.28125 0-15-6.71875-15-15 0-8.289062 6.71875-15 15-15h211.449219c8.277343 0 15 6.710938 15 15zm0 0"/><path d="m300.097656 313c0 8.28125-6.722656 15-15 15h-172.414062c-8.277344 0-14.996094-6.71875-14.996094-15 0-8.289062 6.71875-15 14.996094-15h172.414062c8.28125 0 15 6.710938 15 15zm0 0"/><path d="m320.894531 373c0 8.28125-6.71875 15-15 15h-193.210937c-8.277344 0-14.996094-6.71875-14.996094-15 0-8.289062 6.71875-15 14.996094-15h193.210937c8.28125 0 15 6.710938 15 15zm0 0"/></g><path d="m440 117.730469v15h-99.824219c-19.167969 0-34.769531-15.601563-34.769531-34.769531v-97.960938h15c3.929688 0 7.710938 1.539062 10.507812 4.289062l104.597657 102.742188c2.867187 2.820312 4.488281 6.667969 4.488281 10.699219zm0 0" fill="#fa6f2c"/><path d="m285.097656 328h-65.097656v-30h65.097656c8.28125 0 15 6.710938 15 15 0 8.28125-6.71875 15-15 15zm0 0" fill="#ddf3fd"/><path d="m320.894531 373c0 8.28125-6.71875 15-15 15h-85.894531v-30h85.894531c8.28125 0 15 6.710938 15 15zm0 0" fill="#ddf3fd"/><path d="m339.136719 253c0 8.28125-6.722657 15-15 15h-104.136719v-30h104.136719c8.277343 0 15 6.710938 15 15zm0 0" fill="#ddf3fd"/></svg>