<?xml version="1.0" encoding="iso-8859-1"?>
<!-- Generator: Adobe Illustrator 21.0.0, SVG Export Plug-In . SVG Version: 6.00 Build 0)  -->
<svg xmlns="http://www.w3.org/2000/svg" xmlns:xlink="http://www.w3.org/1999/xlink" version="1.1" id="Capa_1" x="0px" y="0px" viewBox="0 0 512 512" style="enable-background:new 0 0 512 512;" xml:space="preserve" width="512" height="512">
<g id="XMLID_4240_">
	<g id="XMLID_4265_">
		<path id="XMLID_4266_" style="fill:#DCE1EA;" d="M428.262,0H202.27c-3.981,0-7.799,1.583-10.612,4.399L73.126,123.062    c-2.81,2.813-4.388,6.625-4.388,10.601V497c0,8.284,6.716,15,15,15h344.524c8.284,0,15-6.716,15-15V15    C443.262,6.716,436.546,0,428.262,0z"/>
	</g>
	<g id="XMLID_4263_">
		<path id="XMLID_4264_" style="fill:#E8ECF4;" d="M202.27,0c-3.981,0-7.799,1.583-10.612,4.399L73.126,123.062    c-2.81,2.813-4.388,6.625-4.388,10.601V497c0,8.284,6.716,15,15,15H256V0H202.27z"/>
	</g>
	<g id="XMLID_4251_">
		<g id="XMLID_4252_">
			<g id="XMLID_4261_">
				<path id="XMLID_4262_" style="fill:#005FE1;" d="M374.911,118.289H203.402c-8.284,0-15-6.716-15-15s6.716-15,15-15h171.509      c8.284,0,15,6.716,15,15S383.195,118.289,374.911,118.289z"/>
			</g>
			<g id="XMLID_4259_">
				<path id="XMLID_4260_" style="fill:#005FE1;" d="M374.911,195.536H142.565c-8.284,0-15-6.716-15-15s6.716-15,15-15h232.346      c8.284,0,15,6.716,15,15S383.195,195.536,374.911,195.536z"/>
			</g>
			<g id="XMLID_4257_">
				<path id="XMLID_4258_" style="fill:#005FE1;" d="M374.911,272.783H142.565c-8.284,0-15-6.716-15-15s6.716-15,15-15h232.346      c8.284,0,15,6.716,15,15S383.195,272.783,374.911,272.783z"/>
			</g>
			<g id="XMLID_4255_">
				<path id="XMLID_4256_" style="fill:#005FE1;" d="M374.911,350.03H142.565c-8.284,0-15-6.716-15-15s6.716-15,15-15h232.346      c8.284,0,15,6.716,15,15S383.195,350.03,374.911,350.03z"/>
			</g>
			<g id="XMLID_4253_">
				<path id="XMLID_4254_" style="fill:#005FE1;" d="M374.911,427.277H142.565c-8.284,0-15-6.716-15-15s6.716-15,15-15h232.346      c8.284,0,15,6.716,15,15S383.195,427.277,374.911,427.277z"/>
			</g>
		</g>
	</g>
	<g id="XMLID_4249_">
		<path id="XMLID_4250_" style="fill:#E8ECF4;" d="M203.402,0h-1.132c-3.981,0-7.799,1.583-10.612,4.399L73.126,123.062    c-2.81,2.813-4.388,6.625-4.388,10.601l0,0H174.43c16.001,0,28.972-12.971,28.972-28.972V0z"/>
	</g>
	<g id="XMLID_4243_">
		<path id="XMLID_4248_" style="fill:#2682FF;" d="M203.402,88.289c-8.284,0-15,6.716-15,15s6.716,15,15,15h52.597v-30H203.402z"/>
		<path id="XMLID_4247_" style="fill:#2682FF;" d="M142.565,165.536c-8.284,0-15,6.716-15,15s6.716,15,15,15h113.434v-30H142.565z"/>
		<path id="XMLID_4246_" style="fill:#2682FF;" d="M127.565,257.783c0,8.284,6.716,15,15,15h113.434v-30H142.565    C134.281,242.783,127.565,249.499,127.565,257.783z"/>
		<path id="XMLID_4245_" style="fill:#2682FF;" d="M127.565,335.03c0,8.284,6.716,15,15,15h113.434v-30H142.565    C134.281,320.03,127.565,326.746,127.565,335.03z"/>
		<path id="XMLID_4244_" style="fill:#2682FF;" d="M127.565,412.277c0,8.284,6.716,15,15,15h113.434v-30H142.565    C134.281,397.277,127.565,403.993,127.565,412.277z"/>
	</g>
	<g id="XMLID_4241_">
		<path id="XMLID_4242_" style="fill:#F3F5FB;" d="M203.402,0h-1.132c-3.981,0-7.799,1.583-10.612,4.399L73.126,123.062    c-2.81,2.813-4.388,6.625-4.388,10.601l0,0H174.43c16.001,0,28.972-12.971,28.972-28.972V0z"/>
	</g>
</g>















</svg>
