<svg id="Capa_1" enable-background="new 0 0 512 512" height="512" viewBox="0 0 512 512" width="512" xmlns="http://www.w3.org/2000/svg"><g><g><path d="m497 512h-482c-8.284 0-15-6.716-15-15v-482c0-8.284 6.716-15 15-15h362c3.979 0 7.794 1.58 10.606 4.394l120 120c2.814 2.812 4.394 6.627 4.394 10.606v362c0 8.284-6.716 15-15 15z" fill="#fffbf4"/></g><path d="m507.606 124.394-120-120c-2.812-2.814-6.627-4.394-10.606-4.394v120c0 8.284 6.716 15 15 15h120c0-3.979-1.58-7.794-4.394-10.606z" fill="#ffcb00"/><g><path d="m512 497v-64.231l-104.477-125.372c-2.85-3.42-7.071-5.397-11.523-5.397s-8.674 1.978-11.523 5.397l-170.503 204.603h283.026c8.284 0 15-6.716 15-15z" fill="#6ba7ff"/></g><g><path d="m387.606 4.394c-2.812-2.814-6.627-4.394-10.606-4.394h-121v512h241c8.284 0 15-6.716 15-15v-362c0-3.979-1.58-7.794-4.394-10.606z" fill="#f9f4c8"/><path d="m507.606 124.394-120-120c-2.812-2.814-6.627-4.394-10.606-4.394v120c0 8.284 6.716 15 15 15h120c0-3.979-1.58-7.794-4.394-10.606z" fill="#ffe79b"/><g><path d="m311 285c-30.327 0-55-24.673-55-55s24.673-55 55-55 55 24.673 55 55-24.673 55-55 55z" fill="#ff3838"/></g><g><path d="m512 497v-64.231l-104.477-125.372c-2.85-3.42-7.071-5.397-11.523-5.397s-8.674 1.978-11.523 5.397l-170.503 204.603h283.026c8.284 0 15-6.716 15-15z" fill="#2681ff"/></g></g><g><path d="m146 242c-4.325 0-8.44 1.867-11.289 5.122l-134.711 153.956v95.922c0 8.284 6.716 15 15 15h374.057l-231.768-264.878c-2.849-3.255-6.964-5.122-11.289-5.122z" fill="#93c6ec"/></g><path d="m256 512h133.057l-133.057-152.065z" fill="#6ba7ff"/></g></svg>