<?xml version="1.0" encoding="iso-8859-1"?>
<!-- Generator: Adobe Illustrator 19.0.0, SVG Export Plug-In . SVG Version: 6.00 Build 0)  -->
<svg version="1.1" id="Capa_1" xmlns="http://www.w3.org/2000/svg" xmlns:xlink="http://www.w3.org/1999/xlink" x="0px" y="0px"
	 viewBox="0 0 512 512" style="enable-background:new 0 0 512 512;" xml:space="preserve">
<path style="fill:#E5E5E5;" d="M466,120v347c0,24.899-20.099,45-45,45H91c-24.901,0-45-20.101-45-45V45C46,20.099,66.099,0,91,0h255
	l30,90L466,120z"/>
<path style="fill:#D9D9D9;" d="M466,120v347c0,24.899-20.099,45-45,45H256V0h90l30,90L466,120z"/>
<g>
	<path style="fill:#AEADB3;" d="M391,437c0,8.399-6.599,15-15,15H136c-8.401,0-15-6.601-15-15c0-8.401,6.599-15,15-15h240
		C384.401,422,391,428.599,391,437z"/>
	<path style="fill:#AEADB3;" d="M391,376c0,8.399-6.599,15-15,15H136c-8.401,0-15-6.601-15-15c0-8.401,6.599-15,15-15h240
		C384.401,361,391,367.599,391,376z"/>
</g>
<path style="fill:#FE9923;" d="M346,105c0,8.401,6.599,15,15,15h105L346,0V105z"/>
<path style="fill:#4DBAEE;" d="M358.299,156.899l-7.2,26.7L256,247.2l-0.601,0.3L168.4,191.7l-14.7-34.801
	c1.5-1.5,2.399-3.3,3.898-4.501l90-59.998c2.1-1.8,5.402-2.401,8.401-2.401c2.999,0,6.301,0.601,8.401,2.401l90,59.998
	C355.901,153.6,356.8,155.4,358.299,156.899z"/>
<g>
	<path style="fill:#8B8892;" d="M391,437c0,8.399-6.599,15-15,15H256v-30h120C384.401,422,391,428.599,391,437z"/>
	<path style="fill:#8B8892;" d="M376,391H256v-30h120c8.401,0,15,6.599,15,15C391,384.399,384.401,391,376,391z"/>
</g>
<g>
	<path style="fill:#1BA9EF;" d="M358.299,156.899l-7.2,26.7L256,247.2V90c2.999,0,6.301,0.601,8.401,2.401l90,59.998
		C355.901,153.6,356.8,155.4,358.299,156.899z"/>
	<path style="fill:#1BA9EF;" d="M361,165v90c0,5.099-2.401,9.6-6.599,12.599l-90,60H263.5c0,0.3-0.3,0.601-0.3,0.601
		c-2.401,1.199-4.799,1.8-7.2,1.8s-4.799-0.601-7.2-1.8c0,0-0.3-0.3-0.3-0.601h-0.901l-90-60C153.401,264.6,151,260.099,151,255v-90
		c0-2.701,0.901-6.301,2.701-8.101L256,225l102.299-68.101C360.099,158.699,361,162.299,361,165z"/>
</g>
<path style="fill:#1689FC;" d="M263.2,328.2c-2.401,1.199-4.799,1.8-7.2,1.8V225l102.299-68.101c1.8,1.8,2.701,5.4,2.701,8.101v90
	c0,5.099-2.401,9.6-6.599,12.599l-90,60H263.5C263.5,327.9,263.2,328.2,263.2,328.2z"/>
<g>
</g>
<g>
</g>
<g>
</g>
<g>
</g>
<g>
</g>
<g>
</g>
<g>
</g>
<g>
</g>
<g>
</g>
<g>
</g>
<g>
</g>
<g>
</g>
<g>
</g>
<g>
</g>
<g>
</g>
</svg>
