<svg height="512pt" viewBox="-40 0 512 512" width="512pt" xmlns="http://www.w3.org/2000/svg"><path d="m432.246094 94.320312v402.632813c0 8.316406-6.730469 15.046875-15.046875 15.046875h-374.921875c-7.855469 0-14.308594-6.007812-14.980469-13.695312-.046875-.441407-.070313-.890626-.070313-1.351563v-481.90625c0-8.316406 6.734376-15.046875 15.050782-15.046875h295.644531c1.898437 0 3.761719.359375 5.5 1.042969 1.90625.742187 3.660156 1.886719 5.136719 3.359375l79.28125 79.285156c1.457031 1.457031 2.578125 3.171875 3.320312 5.046875.703125 1.753906 1.085938 3.652344 1.085938 5.585937zm0 0" fill="#d9f5ff"/><path d="m431.160156 88.734375c-.742187-1.875-1.863281-3.589844-3.320312-5.046875l-79.28125-79.285156c-1.476563-1.472656-3.230469-2.617188-5.136719-3.359375-1.738281-.683594-3.601563-1.042969-5.5-1.042969h-125.621094v512h204.898438c8.316406 0 15.046875-6.730469 15.046875-15.046875v-402.632813c0-1.933593-.382813-3.832031-1.085938-5.585937zm0 0" fill="#87e4f9"/><path d="m431.160156 88.734375-69.25-.222656c-10.210937-.039063-18.488281-8.324219-18.488281-18.546875v-68.921875c1.90625.742187 3.660156 1.886719 5.136719 3.359375l79.28125 79.285156c1.457031 1.457031 2.578125 3.171875 3.320312 5.046875zm0 0" fill="#18c1e8"/><g fill="#388ef4"><path d="m66.796875 480.25h-31.679687l35.671874-63.117188c1.773438-3.226562 2.671876-6.222656 2.671876-8.898437 0-5.125-3.65625-8.5625-9.101563-8.5625h-52.277344c-5.519531 0-9.375 5.023437-9.375 12.21875 0 7.078125 3.941407 12.21875 9.375 12.21875h26.261719l-35.636719 63.0625c-1.746093 3.015625-2.707031 6.195313-2.707031 8.953125 0 5.28125 3.488281 8.5625 9.105469 8.5625h57.691406c5.867187 0 9.375-6.210938 9.375-12.21875 0-6.003906-3.507813-12.21875-9.375-12.21875zm0 0"/><path d="m96.269531 399.671875c-8.117187 0-13.570312 3.765625-13.570312 9.375v86.128906c0 5.601563 5.582031 9.511719 13.570312 9.511719 7.992188 0 13.574219-3.910156 13.574219-9.511719v-86.128906c0-5.609375-5.453125-9.375-13.574219-9.375zm0 0"/><path d="m157.351562 399.671875h-28.035156c-6.089844 0-10.863281 4.117187-10.863281 9.375v86.128906c0 5.601563 5.582031 9.511719 13.574219 9.511719 7.988281 0 13.570312-3.910156 13.570312-9.511719v-26.242187h10.398438c23.085937 0 36.324218-12.546875 36.324218-34.429688v-.675781c0-21.707031-12.746093-34.15625-34.96875-34.15625zm-1.355468 46.992187h-10.398438v-22.554687h10.398438c3.941406 0 9.179687 1.089844 9.179687 10.53125v1.492187c0 9.4375-5.238281 10.53125-9.179687 10.53125zm0 0"/></g></svg>