<?xml version="1.0" standalone="no"?>
<!DOCTYPE svg PUBLIC "-//W3C//DTD SVG 20010904//EN"
 "http://www.w3.org/TR/2001/REC-SVG-20010904/DTD/svg10.dtd">
<svg version="1.0" xmlns="http://www.w3.org/2000/svg"
 width="341.000000pt" height="341.000000pt" viewBox="0 0 341.000000 341.000000"
 preserveAspectRatio="xMidYMid meet">
<metadata>
Created by potrace 1.11, written by Peter Selinger 2001-2013
</metadata>
<g transform="translate(0.000000,341.000000) scale(0.100000,-0.100000)"
fill="#000000" stroke="none">
<path d="M500 3392 c-20 -10 -42 -32 -52 -52 -17 -33 -18 -132 -18 -1635 0
-1503 1 -1602 18 -1635 37 -75 -51 -70 1257 -70 1308 0 1220 -5 1257 70 17 33
18 117 18 1325 l-1 1290 -435 363 -436 362 -787 0 c-728 0 -789 -1 -821 -18z
m885 -681 c90 -41 101 -76 75 -244 -72 -477 -122 -1394 -90 -1620 18 -120 56
-159 98 -100 44 64 136 289 237 583 38 109 44 139 47 230 5 124 20 161 78 190
69 35 156 20 215 -37 46 -45 50 -79 26 -214 -27 -147 -45 -382 -38 -485 8
-116 32 -158 77 -134 40 22 168 323 225 532 18 69 46 98 92 98 37 0 83 -37 83
-65 0 -27 -79 -283 -117 -380 -109 -277 -235 -425 -362 -425 -45 0 -131 35
-175 72 -38 31 -96 134 -96 171 0 33 -16 16 -40 -44 -51 -130 -168 -302 -234
-348 -104 -70 -217 -67 -288 6 -67 69 -116 216 -137 415 -24 216 -12 657 29
1143 11 127 25 303 30 393 6 102 15 173 24 190 43 83 150 115 241 73z m732
-277 c71 -23 111 -54 134 -102 72 -148 -92 -304 -321 -305 -144 -1 -244 43
-276 120 -64 152 104 300 343 302 41 1 93 -6 120 -15z"/>
</g>
</svg>
